#!OML:ASF F:\VICON\USERDATA\INSTALL\Justin_Nancy\Justin_Nancy.ASF
:FULLY-SPECIFIED
:DEGREES
232
root 6.77699 17.4103 14.961 -0.933185 39.393 -3.80719
lowerback 6.2809 0.681142 2.68831
upperback 0.749086 1.20709 3.04449
thorax -2.76102 0.597002 1.52727
lowerneck -15.8267 -3.24485 -9.25926
upperneck 23.2854 -2.84526 3.56492
head 10.2565 -1.66808 2.4403
rclavicle -4.27387e-015 -1.82882e-014
rhumerus -32.9669 -10.5125 -78.999
rradius 33.5456
rwrist 5.48419
rhand -16.3866 11.8566
rfingers 7.12502
rthumb 9.82717 -17.8941
lclavicle -4.27387e-015 -1.82882e-014
lhumerus -33.7163 6.75581 84.4456
lradius 29.8665
lwrist -9.29377
lhand -10.3004 14.2052
lfingers 7.12502
lthumb 15.6944 43.5888
rfemur -4.878 3.6791 29.3619
rtibia 25.0251
rfoot -16.153 -4.10647
rtoes 3.33488
lfemur -30.1398 -1.13484 -17.9621
ltibia 59.7376
lfoot -10.4805 3.68934
ltoes -0.457009
233
root 6.92143 17.3951 15.1308 -0.892026 38.9708 -3.9352
lowerback 6.28061 0.762448 2.81002
upperback 0.797485 1.32423 3.10475
thorax -2.71054 0.655175 1.51167
lowerneck -15.9185 -3.20615 -9.21859
upperneck 23.24 -2.74769 3.38925
head 10.2481 -1.6391 2.38276
rclavicle 1.09232e-013 7.95139e-016
rhumerus -32.2754 -9.49849 -79.2523
rradius 34.4872
rwrist 4.034
rhand -16.8113 12.2951
rfingers 7.12502
rthumb 9.41739 -17.4745
lclavicle 1.09232e-013 7.95139e-016
lhumerus -33.9647 6.07548 85.1831
lradius 29.973
lwrist -7.28185
lhand -12.2124 18.3164
lfingers 7.12502
lthumb 13.8524 47.8352
rfemur -4.04317 3.57978 29.5633
rtibia 24.8084
rfoot -16.4099 -4.26474
rtoes 3.75897
lfemur -31.0154 -0.943048 -17.8364
ltibia 57.6431
lfoot -10.7828 4.0148
ltoes -2.6874
234
root 7.06215 17.3707 15.3062 -1.00004 38.6032 -4.13849
lowerback 6.33981 0.785847 2.82699
upperback 0.873708 1.36162 3.23251
thorax -2.66804 0.675463 1.63077
lowerneck -15.9975 -3.15246 -9.27757
upperneck 23.2006 -2.65331 3.40466
head 10.2435 -1.59844 2.41006
rclavicle 3.96575e-014 2.38542e-015
rhumerus -31.724 -8.41787 -79.5402
rradius 35.4682
rwrist 2.85673
rhand -17.3678 12.7127
rfingers 7.12502
rthumb 8.88041 -17.0805
lclavicle 3.96575e-014 2.38542e-015
lhumerus -34.4414 5.04758 86.1125
lradius 30.4968
lwrist -4.73656
lhand -14.3558 23.3696
lfingers 7.12502
lthumb 11.786 53.018
rfemur -2.99571 3.37059 29.8917
rtibia 24.4506
rfoot -16.6003 -4.57538
rtoes 2.70198
lfemur -31.6436 -1.14774 -17.5707
ltibia 55.4276
lfoot -11.2801 4.54029
ltoes -3.96225
235
root 7.20362 17.3472 15.4809 -1.13769 38.2642 -4.53261
lowerback 6.39374 0.783755 3.10829
upperback 0.871667 1.38571 3.33442
thorax -2.69662 0.685463 1.57587
lowerneck -16.1148 -3.22408 -9.37933
upperneck 23.2162 -2.71613 3.40715
head 10.2785 -1.63612 2.41838
rclavicle -8.64713e-015 1.59028e-014
rhumerus -31.3625 -7.52729 -79.7641
rradius 36.6173
rwrist 2.49275
rhand -17.4513 12.6513
rfingers 7.12502
rthumb 8.79983 -17.1453
lclavicle -8.64713e-015 1.59028e-014
lhumerus -35.1133 3.65764 87.1164
lradius 31.2372
lwrist -1.51697
lhand -17.2281 29.6559
lfingers 7.12502
lthumb 9.01529 59.4433
rfemur -2.00305 3.47184 30.3631
rtibia 23.94
rfoot -16.8202 -4.74467
rtoes 2.79223
lfemur -32.2739 -1.54723 -17.0394
ltibia 53.0968
lfoot -11.5507 4.99509
ltoes -2.86023
236
root 7.3531 17.3389 15.6531 -1.10017 37.8559 -4.87317
lowerback 6.30862 0.902617 3.45818
upperback 0.829369 1.56686 3.37277
thorax -2.68561 0.772366 1.40539
lowerneck -16.1927 -3.34628 -9.42561
upperneck 23.2281 -2.87326 3.42737
head 10.3106 -1.71007 2.41086
rclavicle -2.77305e-014 -1.59028e-015
rhumerus -30.8987 -6.99158 -79.785
rradius 37.7156
rwrist 2.04521
rhand -17.2373 12.1773
rfingers 7.12502
rthumb 9.00638 -17.6104
lclavicle -2.77305e-014 -1.59028e-015
lhumerus -35.4799 3.82757 86.8645
lradius 30.4788
lwrist -2.72841
lhand -16.0566 28.4102
lfingers 7.12502
lthumb 10.1456 58.1456
rfemur -1.08241 3.54623 30.7304
rtibia 23.265
rfoot -16.8837 -4.81466
rtoes 2.30955
lfemur -32.8594 -1.83564 -16.5156
ltibia 50.5501
lfoot -11.5818 5.26547
ltoes -2.02881
237
root 7.50252 17.3354 15.8252 -0.855038 37.3965 -4.90165
lowerback 6.23582 1.01963 3.54175
upperback 0.824406 1.72468 3.39223
thorax -2.64819 0.8505 1.36683
lowerneck -16.24 -3.24156 -9.43723
upperneck 23.0846 -2.71184 3.40005
head 10.2557 -1.63788 2.42345
rclavicle 2.8128e-014 -1.90833e-014
rhumerus -30.2317 -6.33934 -79.742
rradius 38.7136
rwrist 1.31593
rhand -17.18 12.157
rfingers 7.12502
rthumb 9.06169 -17.6283
lclavicle 2.8128e-014 -1.90833e-014
lhumerus -35.677 4.11778 86.8253
lradius 29.8225
lwrist -3.51053
lhand -15.3289 26.6646
lfingers 7.12502
lthumb 10.8475 56.3644
rfemur -0.0194718 3.52304 30.8344
rtibia 22.3479
rfoot -16.783 -5.00025
rtoes 0.296291
lfemur -33.4117 -2.11363 -16.3114
ltibia 47.7509
lfoot -10.9785 5.84235
ltoes -3.45089
